<?xml version="1.0" encoding="UTF-8" standalone="no"?>
<!-- Created with Inkscape (http://www.inkscape.org/) -->

<svg
   xmlns:dc="http://purl.org/dc/elements/1.1/"
   xmlns:cc="http://creativecommons.org/ns#"
   xmlns:rdf="http://www.w3.org/1999/02/22-rdf-syntax-ns#"
   xmlns:svg="http://www.w3.org/2000/svg"
   xmlns="http://www.w3.org/2000/svg"
   xmlns:sodipodi="http://sodipodi.sourceforge.net/DTD/sodipodi-0.dtd"
   xmlns:inkscape="http://www.inkscape.org/namespaces/inkscape"
   width="50mm"
   height="50mm"
   viewBox="0 0 50 50"
   version="1.1"
   id="svg8"
   inkscape:version="0.92.4 5da689c313, 2019-01-14"
   sodipodi:docname="project-logo.svg"
   inkscape:export-filename="/home/norbert/Projects/cpp/nglibs/config-git/doc/images/project-logo.png"
   inkscape:export-xdpi="32.509998"
   inkscape:export-ydpi="32.509998">
  <defs
     id="defs2" />
  <sodipodi:namedview
     id="base"
     pagecolor="#ffffff"
     bordercolor="#666666"
     borderopacity="1.0"
     inkscape:pageopacity="0.0"
     inkscape:pageshadow="2"
     inkscape:zoom="0.98994949"
     inkscape:cx="127.37047"
     inkscape:cy="100.05"
     inkscape:document-units="mm"
     inkscape:current-layer="layer1"
     showgrid="false"
     fit-margin-top="0"
     fit-margin-left="0"
     fit-margin-right="0"
     fit-margin-bottom="0"
     inkscape:window-width="1920"
     inkscape:window-height="1023"
     inkscape:window-x="0"
     inkscape:window-y="0"
     inkscape:window-maximized="1" />
  <metadata
     id="metadata5">
    <rdf:RDF>
      <cc:Work
         rdf:about="">
        <dc:format>image/svg+xml</dc:format>
        <dc:type
           rdf:resource="http://purl.org/dc/dcmitype/StillImage" />
        <dc:title></dc:title>
      </cc:Work>
    </rdf:RDF>
  </metadata>
  <g
     inkscape:label="Layer 1"
     inkscape:groupmode="layer"
     id="layer1"
     transform="translate(-69.24459,-10.96794)">
    <g
       id="g4569"
       transform="translate(0.22479756,-0.21937451)">
      <path
         sodipodi:nodetypes="ccscccsssccsccsccccccscscscscccc"
         inkscape:connector-curvature="0"
         id="path4529"
         d="m 90.32621,60.625948 -0.66146,-0.33419 -0.13229,-7.13639 c -0.095,-5.12328 -0.22837,-7.30462 -0.47291,-7.73278 -0.187337,-0.32801 -1.008383,-1.34004 -1.824545,-2.24896 -2.217645,-2.46966 -2.852643,-4.01391 -2.857761,-6.94979 -0.0038,-2.16714 0.07573,-2.54909 0.863824,-4.14994 0.864909,-1.75688 3.138679,-4.17887 3.923132,-4.17887 0.29588,0 0.36826,0.6812 0.36826,3.46604 v 3.46604 l 0.89959,0.89958 c 0.89268,0.89268 0.91825,0.89959 3.33375,0.89959 2.41549,0 2.44107,-0.007 3.33375,-0.89959 l 0.89957,-0.89958 v -3.59833 c 0,-4.10147 0.0316,-4.14682 1.89766,-2.72734 2.53845,1.9309 4.16436,5.61752 3.81243,8.6444 -0.26486,2.27798 -1.48644,4.58482 -3.44464,6.50483 -1.15097,1.12854 -1.79131,1.99438 -1.9815,2.6793 -0.16176,0.58253 -0.28162,3.67841 -0.28247,7.29579 -0.001,5.93 -0.0313,6.31365 -0.53064,6.81302 -0.32758,0.32758 -0.88194,0.52916 -1.4552,0.52916 h -0.92604 v -7.16114 c 0,-4.43038 -0.10445,-7.3563 -0.2739,-7.67292 -0.1751,-0.32719 -0.55346,-0.51177 -1.04902,-0.51177 -0.49556,0 -0.87392,0.18458 -1.04903,0.51177 -0.16944,0.31662 -0.27389,3.24254 -0.27389,7.67292 v 7.16114 l -0.72761,-0.004 c -0.40018,-0.002 -1.02526,-0.15428 -1.38906,-0.33809 z"
         style="fill:#440055;stroke-width:0.26458335" />
      <path
         sodipodi:nodetypes="ccscscscssscccccccscccccsssscsccsssccssccsscscccssccccccccscccccccc"
         inkscape:connector-curvature="0"
         id="path4529-3"
         d="m 106.47139,54.377109 -1.678,-1.611288 -1.70096,0.916529 c -0.93553,0.50409 -1.84979,0.91924 -2.0317,0.92255 -0.2446,0.004 -0.33072,-0.740469 -0.33072,-2.860429 V 48.87803 l 1.47013,-1.01252 c 2.56297,-1.765189 4.51296,-4.40481 5.57164,-7.54211 0.7438,-2.204201 0.68439,-6.44928 -0.12319,-8.80169 -3.44011,-10.020716 -16.11829,-12.973098 -23.596457,-5.49493 -6.147788,6.14779 -5.460254,16.235479 1.462788,21.462421 l 1.456753,1.099859 v 3.02432 3.024309 l -2.135464,-1.110988 -2.135463,-1.11099 -1.51023,1.49447 c -2.0665,2.04494 -2.356851,2.00979 -4.888586,-0.59181 -1.283973,-1.3194 -2.030258,-2.30038 -2.030258,-2.66873 0,-0.350171 0.622634,-1.23281 1.56123,-2.2132 L 77.394131,46.8057 76.519049,45.075971 c -0.481295,-0.95136 -1.135914,-2.588469 -1.454708,-3.638032 L 74.484715,39.52965 h -2.208184 c -2.888123,0 -3.031941,-0.179059 -3.031941,-3.77506 0,-2.40664 0.04806,-2.64705 0.649432,-3.24842 0.578732,-0.57873 0.874558,-0.64943 2.717382,-0.64943 h 2.067951 l 0.611313,-1.96934 c 0.336222,-1.08314 1.020089,-2.64818 1.519705,-3.47787 l 0.908391,-1.508538 -1.458962,-1.529569 c -2.057698,-2.157281 -2.012283,-2.526126 0.627321,-5.094845 1.382679,-1.345548 2.292922,-2.030259 2.698998,-2.030259 0.400538,0 1.144087,0.546415 2.14719,1.577916 l 1.534476,1.577914 2.140562,-1.035151 c 1.177309,-0.569334 2.771615,-1.176375 3.542902,-1.348982 1.327689,-0.297124 1.410759,-0.364749 1.560549,-1.270367 0.087,-0.526096 0.15953,-1.567037 0.16113,-2.313203 0.004,-1.962162 0.26416,-2.098895 3.8155,-2.006945 3.70349,0.09589 3.86033,0.227601 3.86033,3.241855 v 2.068581 l 1.52135,0.435913 c 0.83674,0.239751 2.39489,0.903686 3.46254,1.475408 l 1.94119,1.039495 1.60963,-1.456634 c 1.0314,-0.933367 1.84304,-1.456632 2.25937,-1.456632 0.82687,0 4.45629,3.519492 4.70092,4.558538 0.14706,0.624628 -0.0455,0.946554 -1.42721,2.385413 l -1.59722,1.663337 0.94064,1.895005 c 0.51735,1.04226 1.14618,2.64773 1.39739,3.56771 l 0.45674,1.6727 2.27714,0.1323 c 1.35399,0.0787 2.41611,0.27201 2.61994,0.47693 0.24971,0.25106 0.32193,1.14907 0.26598,3.30729 -0.0969,3.735931 -0.22418,3.88869 -3.24103,3.88869 h -2.06857 l -0.43592,1.52136 c -0.23975,0.836739 -0.90356,2.394651 -1.47512,3.46202 l -1.03922,1.940671 1.45516,1.631209 c 0.89534,1.003649 1.45562,1.87307 1.45636,2.25988 0.002,0.806091 -3.53687,4.439611 -4.55735,4.679871 -0.62506,0.147159 -0.94754,-0.0465 -2.40008,-1.441302 z"
         style="fill:#2d1650;stroke-width:0.26458338" />
    </g>
  </g>
</svg>
